HIERARCHY
ROOT Hips
{
	OFFSET -3.958830 18.904000 13.208200
	CHANNELS 6 Xposition Yposition Zposition Zrotation Yrotation Xrotation 
	JOINT LHipJoint
	{
		OFFSET 0.000000 0.000000 0.000000
		CHANNELS 3 Zrotation Yrotation Xrotation
		JOINT LeftUpLeg
		{
			OFFSET 1.800000 -1.400000 0.085000
			CHANNELS 3 Zrotation Yrotation Xrotation
			JOINT LeftLeg
			{
				OFFSET 2.215000 -6.000000 0.000000
				CHANNELS 3 Zrotation Yrotation Xrotation
				JOINT LeftFoot
				{
					OFFSET 2.500000 -6.900000 0.000000
					CHANNELS 3 Zrotation Yrotation Xrotation
					JOINT LeftToeBase
					{
						OFFSET 0.200000 -0.500000 1.950000
						CHANNELS 3 Zrotation Yrotation Xrotation
						End Site
						{
							OFFSET 0.000000 0.000000 0.000000
						}
					}
				}
			}
		}
	}
	JOINT RHipJoint
	{
		OFFSET 0.000000 0.000000 0.000000
		CHANNELS 3 Zrotation Yrotation Xrotation
		JOINT RightUpLeg
		{
			OFFSET -1.800000 -1.400000 0.085000
			CHANNELS 3 Zrotation Yrotation Xrotation
			JOINT RightLeg
			{
				OFFSET -2.215000 -6.000000 0.000000
				CHANNELS 3 Zrotation Yrotation Xrotation
				JOINT RightFoot
				{
					OFFSET -2.500000 -6.900000 0.000000
					CHANNELS 3 Zrotation Yrotation Xrotation
					JOINT RightToeBase
					{
						OFFSET -0.200000 -0.500000 1.950000
						CHANNELS 3 Zrotation Yrotation Xrotation
						End Site
						{
							OFFSET 0.000000 0.000000 0.000000
						}
					}
				}
			}
		}
	}
	JOINT LowerBack
	{
		OFFSET 0.000000 0.000000 0.000000
		CHANNELS 3 Zrotation Yrotation Xrotation
		JOINT Spine
		{
			OFFSET -0.087000 1.940000 -0.288900
			CHANNELS 3 Zrotation Yrotation Xrotation
			JOINT Spine1
			{
				OFFSET 0.000000 1.950000 0.060000
				CHANNELS 3 Zrotation Yrotation Xrotation
				JOINT Neck
				{
					OFFSET 0.000000 0.000000 0.000000
					CHANNELS 3 Zrotation Yrotation Xrotation
					JOINT Neck1
					{
						OFFSET 0.000000 1.600000 0.340000
						CHANNELS 3 Zrotation Yrotation Xrotation
						JOINT Head
						{
							OFFSET 0.000000 1.667000 -0.240000
							CHANNELS 3 Zrotation Yrotation Xrotation
							End Site
							{
								OFFSET 0.000000 0.000000 0.000000
							}
						}
					}
				}
				JOINT LeftShoulder
				{
					OFFSET 0.000000 0.000000 0.000000
					CHANNELS 3 Zrotation Yrotation Xrotation
					JOINT LeftArm
					{
						OFFSET 2.700000 1.550000 -0.730000
						CHANNELS 3 Zrotation Yrotation Xrotation
						JOINT LeftForeArm
						{
							OFFSET 5.450000 0.000000 0.000000
							CHANNELS 3 Zrotation Yrotation Xrotation
							JOINT LeftHand
							{
								OFFSET 3.450000 0.000000 0.000000
								CHANNELS 3 Zrotation Yrotation Xrotation
								JOINT LeftHandIndex1
								{
									OFFSET 0.750000 0.000000 0.000000
									CHANNELS 3 Zrotation Yrotation Xrotation
									End Site
									{
										OFFSET 0.000000 0.000000 0.000000
									}
								}
							}
						}
					}
				}
				JOINT RightShoulder
				{
					OFFSET 0.000000 0.000000 0.000000
					CHANNELS 3 Zrotation Yrotation Xrotation
					JOINT RightArm
					{
						OFFSET -2.700000 1.550000 -0.730000
						CHANNELS 3 Zrotation Yrotation Xrotation
						JOINT RightForeArm
						{
							OFFSET -5.450000 0.000000 0.000000
							CHANNELS 3 Zrotation Yrotation Xrotation
							JOINT RightHand
							{
								OFFSET -3.450000 0.000000 0.000000
								CHANNELS 3 Zrotation Yrotation Xrotation
								JOINT RightHandIndex1
								{
									OFFSET -0.750000 0.000000 0.000000
									CHANNELS 3 Zrotation Yrotation Xrotation
									End Site
									{
										OFFSET 0.000000 0.000000 0.000000
									}
								}
							}
						}
					}
				}
			}
		}
	}
}
MOTION
Frames: 14
Frame Time: 0.016667
-0.476920 17.547980 -1.157030 0.451881 28.720406 15.042930 -14.833577 12.219345 2.286338 4.160811 -2.104241 -17.063792 -4.552379 5.272739 16.041179 -0.592162 3.984787 3.540901 0.018140 -0.405330 0.000890 18.708305 -11.148011 3.373445 -1.215139 3.820268 -23.682516 10.741457 -3.614247 4.808948 0.314863 -2.938435 3.696180 -0.036250 0.732900 0.204400 -5.118491 1.259485 -6.802489 17.475796 0.868974 3.224119 -3.707337 0.569512 4.796781 3.535152 6.340248 -4.089478 10.407587 -12.284265 26.873666 -8.388890 -6.375160 8.649240 -20.710379 3.838735 0.297242 -48.673932 6.756592 -10.737399 -22.884749 -26.022606 2.102848 -4.272228 3.036841 -0.005700 0.654920 -0.588640 0.224910 13.910435 -9.126320 -0.270714 57.206082 -4.280384 -11.241898 9.341409 20.159013 -1.077752 2.064082 -1.519432 -0.353120 0.210200 0.130050 -0.141460 
-0.485770 17.553750 -1.160470 0.369882 28.772778 14.788486 -14.832583 12.262815 2.265947 3.699526 -1.959474 -16.153637 -4.258977 5.220235 16.019103 -0.595685 3.989868 3.547607 0.002200 -0.426830 0.009760 18.706799 -11.170612 3.367691 -1.007961 3.750102 -23.511098 10.418242 -3.602173 4.861513 0.318237 -2.905025 3.712961 -0.047180 0.727970 0.188410 -5.134569 1.233763 -6.800149 17.709985 0.800177 3.347969 -3.693311 0.513214 4.741599 3.570508 6.343322 -4.058952 10.366845 -12.076557 27.323023 -8.509880 -6.031410 8.604550 -20.715644 4.335775 0.289162 -48.598658 7.646214 -11.250866 -23.453312 -27.661395 2.478145 -4.255997 3.020116 0.013740 0.646550 -0.583550 0.213200 13.851788 -9.691641 -0.249068 56.867063 -5.065425 -11.908568 9.711981 21.840783 -0.956343 2.046459 -1.497174 -0.371330 0.227070 0.136740 -0.153970 
-0.493800 17.573940 -1.166300 0.209360 29.442049 14.235710 -14.821009 12.303580 2.230113 2.976053 -1.719431 -14.594053 -3.681436 5.063486 15.866125 -0.616314 3.976420 3.549304 -0.004040 -0.442240 0.022970 18.716678 -11.212293 3.365577 -0.860483 3.516600 -22.690172 10.213603 -3.562072 4.232326 0.292093 -2.905137 3.708998 -0.059340 0.700210 0.182560 -5.206198 1.244476 -6.814468 18.599186 0.562464 3.459534 -4.214067 0.302960 4.690402 3.836113 6.545240 -4.101937 10.643917 -12.086985 28.307490 -8.617070 -5.865240 8.137680 -20.770074 4.652464 0.200897 -48.241837 8.203988 -11.509136 -23.441115 -28.572428 2.634301 -4.230242 2.994756 0.064180 0.620810 -0.559040 0.192940 13.378545 -10.389583 0.021786 57.005725 -6.288020 -12.869146 10.535311 23.842740 -0.734953 2.014728 -1.468617 -0.383980 0.233980 0.151320 -0.176600 
-0.506690 17.594600 -1.177160 0.147588 29.930257 13.582455 -14.821092 12.356946 2.234190 2.176314 -1.498061 -12.978014 -3.455944 5.090869 16.218315 -0.618754 4.033152 3.516778 0.036460 -0.413060 0.084210 18.712701 -11.254543 3.344015 -0.503081 3.278351 -21.964968 9.578010 -3.527963 4.161064 0.255910 -2.842485 3.725913 -0.050340 0.638600 0.160980 -5.245555 1.210026 -6.849661 19.156603 0.355842 3.904735 -4.311115 0.167885 4.737133 3.992110 6.758665 -4.223973 10.897000 -12.214639 29.702876 -8.195580 -6.093020 6.783220 -20.704487 4.814702 0.164016 -47.971174 8.656784 -11.778688 -23.584085 -29.518135 2.816074 -4.164999 2.957971 0.135480 0.559870 -0.508670 0.178470 13.042173 -10.809975 0.301565 56.158440 -7.326934 -13.537095 12.184542 25.960095 -0.293615 1.990433 -1.441295 -0.388630 0.254190 0.134240 -0.206310 
-0.530140 17.611710 -1.187310 0.596737 30.239635 13.266294 -14.843666 12.411747 2.283925 0.969807 -1.328935 -11.527045 -3.391588 5.221901 17.056494 -0.610317 4.155987 3.457345 0.051580 -0.407040 0.100930 18.684396 -11.254798 3.318194 -0.734585 3.048395 -21.606618 9.377830 -3.559722 4.179939 0.232505 -2.824452 3.718469 -0.049760 0.592810 0.149200 -5.203214 1.086180 -6.896381 18.837183 0.238549 4.390424 -4.184318 0.111509 4.741304 4.036781 6.913065 -4.476099 11.048070 -12.193423 30.942576 -7.873430 -6.164140 6.151200 -20.451229 4.802495 0.237352 -47.195928 9.028128 -11.816588 -24.579306 -30.749646 3.304773 -4.106626 2.967854 0.195730 0.515560 -0.478450 0.166310 12.733572 -10.905982 0.695095 55.392485 -8.381692 -14.210739 14.202702 28.472403 0.290934 1.955532 -1.449210 -0.397380 0.251500 0.135480 -0.230110 
-0.549530 17.625350 -1.191830 1.061026 30.934967 12.815988 -14.870451 12.432610 2.332167 -0.198713 -1.172220 -9.974155 -3.436367 5.418334 18.109686 -0.577850 4.333489 3.376463 0.099190 -0.366570 0.162210 18.659129 -11.244778 3.276678 -1.343853 2.774614 -21.145455 9.795563 -3.706030 4.345353 0.189062 -2.863888 3.677849 -0.032630 0.538090 0.156150 -5.161333 0.992419 -6.915254 18.571655 0.025059 4.625231 -4.083519 -0.130569 5.275332 4.212952 7.232449 -4.658195 11.510343 -12.567019 32.009539 -7.852790 -6.346650 5.050820 -20.122393 4.595740 0.283287 -46.224585 8.902036 -11.648531 -25.406483 -31.796262 3.757844 -4.063707 2.984350 0.236130 0.476230 -0.434180 0.152270 12.211881 -11.040319 1.001620 54.393469 -8.959378 -14.399244 17.133613 30.416531 1.071465 1.934966 -1.478408 -0.381910 0.245360 0.117050 -0.250670 
-0.559720 17.642700 -1.196590 1.057763 31.701654 11.852100 -14.861352 12.437334 2.393419 -0.806357 -0.973806 -8.157288 -4.075596 5.841448 19.147324 -0.535506 4.580428 3.268896 0.128170 -0.340750 0.192460 18.658155 -11.281294 3.245280 -1.714433 2.577568 -20.745823 10.643488 -4.078020 5.443204 0.140771 -2.927444 3.635947 -0.023580 0.479960 0.131820 -5.243498 1.004812 -7.002965 19.464342 -0.373248 5.300508 -4.727085 -0.374318 5.568929 4.339881 7.313993 -5.040328 11.641419 -12.629563 33.877962 -7.098370 -6.725150 3.918280 -20.245091 4.157072 0.612295 -44.559096 10.023156 -11.927080 -27.763559 -35.208917 5.128747 -3.967155 3.019662 0.304380 0.412440 -0.389890 0.141450 12.066917 -10.756315 1.476023 52.887820 -9.788836 -14.587795 21.023014 32.655561 2.229208 1.916527 -1.494967 -0.387880 0.257450 0.108470 -0.272210 
-0.579090 17.652510 -1.202370 1.196088 32.965402 11.073584 -14.886293 12.458280 2.445504 -1.464107 -0.878578 -6.769419 -4.126677 6.084260 20.434151 -0.503420 4.791547 3.163854 0.196370 -0.270440 0.254740 18.628118 -11.272853 3.218072 -2.236688 2.444613 -20.631116 11.831947 -4.519735 6.614833 0.075823 -3.020281 3.570612 0.006640 0.413140 0.139050 -5.231232 0.919272 -7.056894 19.613180 -0.840989 5.902849 -4.656295 -0.799808 6.080464 4.491281 7.608177 -5.320740 12.174062 -13.053508 35.009359 -6.767510 -7.017360 2.048840 -19.904269 3.824536 0.852248 -43.276183 10.503882 -11.934292 -30.392682 -38.263388 6.674736 -3.896130 3.073505 0.359320 0.359770 -0.330830 0.134730 11.577936 -10.708053 1.671253 51.253579 -9.845852 -14.234405 24.386476 34.051470 3.302698 1.897458 -1.528311 -0.365250 0.255130 0.084920 -0.291970 
-0.608310 17.654890 -1.206660 1.367581 33.511057 10.454740 -14.924502 12.523743 2.528070 -2.180655 -0.634757 -5.380479 -4.136101 6.216727 20.708241 -0.454526 4.902985 3.124365 0.211360 -0.245950 0.275850 18.581787 -11.283558 3.150702 -2.208103 2.444887 -21.308645 11.525905 -4.900783 9.053298 0.074506 -3.013831 3.562226 0.013670 0.392040 0.122290 -5.159151 0.774538 -7.088172 19.181378 -1.040355 6.495987 -3.946813 -0.989579 6.562586 4.366081 7.703015 -5.677599 12.253609 -13.253355 36.081813 -6.412920 -7.272580 1.549050 -19.355680 3.407553 1.162325 -42.199784 10.707368 -11.783075 -32.774141 -40.900339 8.250631 -3.856695 3.098276 0.372130 0.334960 -0.308490 0.131130 11.386813 -10.262432 1.889610 49.067656 -9.987812 -13.880228 27.496774 36.295369 4.589831 1.891099 -1.563661 -0.360250 0.272300 0.072100 -0.291730 
-0.639710 17.651820 -1.213300 1.577040 34.089567 9.981045 -14.971320 12.581341 2.614511 -2.819771 -0.437050 -4.338644 -4.371842 6.397900 20.939204 -0.424387 5.024170 3.073910 0.233840 -0.217410 0.294700 18.529894 -11.277713 3.086621 -2.192171 2.591038 -22.693223 10.926959 -5.334559 12.264991 0.077631 -3.042639 3.531406 0.029190 0.377540 0.118940 -5.054499 0.619988 -7.109265 18.530594 -1.213290 7.127104 -3.264806 -1.154803 7.028889 4.345489 7.983983 -5.897172 12.696972 -13.547290 36.441878 -5.963910 -7.533920 0.870830 -18.835105 3.064844 1.251127 -40.814994 10.442509 -11.357317 -34.608102 -42.758738 9.577443 -3.840433 3.132501 0.379400 0.322030 -0.296300 0.126270 11.054604 -10.087639 2.079029 47.096663 -10.368352 -13.609740 30.758782 38.673359 6.041097 1.869386 -1.617568 -0.352720 0.279750 0.067300 -0.294680 
-0.665980 17.629440 -1.211470 1.725645 35.938064 9.282902 -15.026140 12.663603 2.646483 -2.676969 -0.366163 -3.426557 -4.619225 6.603384 21.407509 -0.410992 5.163520 2.997840 0.295630 -0.139670 0.325890 18.472760 -11.247559 3.030390 -2.365159 2.667239 -23.716101 10.719821 -5.905737 15.467402 0.033852 -3.198607 3.442842 0.072560 0.336010 0.129070 -4.972887 0.389070 -7.113552 18.275370 -1.861881 7.512177 -2.727367 -1.853654 7.878935 4.293224 8.140655 -6.138014 12.836644 -13.644378 36.680068 -5.489660 -7.654300 -0.699000 -17.946181 2.460043 1.431589 -39.234757 10.011013 -10.877956 -37.001460 -44.187054 10.991644 -3.806333 3.189755 0.401320 0.295850 -0.262430 0.129390 10.443240 -9.767974 2.229852 45.256328 -10.438126 -13.204135 33.417396 40.023493 7.187409 1.839821 -1.675568 -0.329520 0.270670 0.047280 -0.301010 
-0.695540 17.609680 -1.218280 1.669688 36.659177 8.589505 -15.064462 12.718956 2.663286 -2.468279 -0.227794 -2.614060 -4.991199 6.821213 21.426789 -0.385980 5.262169 2.958791 0.323530 -0.097610 0.338690 18.435943 -11.174263 3.046640 -2.806221 3.098992 -25.786672 10.949229 -6.825513 20.035268 -0.025613 -3.549019 3.291141 0.095300 0.322050 0.118690 -4.902577 0.190404 -7.158050 17.999553 -2.179656 8.050835 -2.039084 -2.163038 8.627750 4.112651 8.084145 -6.459876 12.574149 -13.486033 37.436101 -4.979820 -7.711770 -1.370490 -17.159741 1.706884 1.674169 -37.902324 9.493725 -10.467555 -38.382540 -45.351964 11.990850 -3.781368 3.211253 0.409720 0.278060 -0.246930 0.135270 10.095818 -8.989755 2.421440 42.789036 -10.352477 -12.527466 36.438802 41.016676 8.448588 1.832682 -1.715286 -0.323470 0.283190 0.033830 -0.298330 
-0.712650 17.601100 -1.225010 1.707093 37.724303 7.606666 -15.096940 12.776491 2.659482 -1.801732 0.045068 -1.140484 -5.342469 6.899841 20.383342 -0.360961 5.261711 2.953550 0.382170 -0.020550 0.361580 18.403764 -11.064725 3.105910 -4.096446 3.392696 -27.555733 12.220431 -8.200517 24.432938 -0.166461 -4.137604 3.049739 0.125900 0.280000 0.113070 -4.870593 -0.053468 -7.266649 18.147030 -2.815813 9.003878 -1.950049 -2.681848 9.180870 4.000408 7.956430 -6.856782 12.231433 -12.936013 39.112348 -3.860600 -7.559240 -2.687770 -17.023390 0.497741 1.928481 -35.781331 8.948722 -10.002173 -39.028363 -46.221354 12.622923 -3.713809 3.235014 0.449430 0.228780 -0.194970 0.161040 10.216850 -7.813524 2.750793 40.274720 -10.595028 -12.085203 38.688043 41.859195 9.451691 1.833681 -1.743229 -0.304460 0.287700 -0.004610 -0.293110 
-0.731060 17.602260 -1.234310 1.647358 38.462667 6.323501 -15.129411 12.851947 2.655688 -0.880506 0.286872 0.426573 -5.593539 6.978673 19.406695 -0.359329 5.299675 2.922064 0.433730 0.033260 0.403510 18.370171 -10.936751 3.191369 -5.200109 3.708018 -29.021301 13.007218 -9.503129 28.554862 -0.316130 -4.742934 2.800999 0.148800 0.221820 0.104230 -4.833171 -0.340447 -7.420337 18.448722 -3.568290 10.586213 -2.040522 -3.170598 9.553632 3.942605 7.619411 -7.179495 11.440571 -12.597678 41.212732 -2.963920 -7.741130 -4.575290 -17.708232 -0.808377 2.141621 -33.290870 9.155956 -9.810285 -38.817327 -47.149925 12.833870 -3.648972 3.227833 0.511840 0.167220 -0.141320 0.157410 11.046059 -6.327159 3.047170 37.068266 -10.927884 -11.649484 41.267798 42.861162 10.660354 1.838446 -1.743002 -0.295480 0.296210 -0.023480 -0.308230 
